<svg xmlns="http://www.w3.org/2000/svg" xmlns:xlink="http://www.w3.org/1999/xlink" version="1.1" width="144" height="166.333" style="" xml:space="preserve"><rect id="backgroundrect" width="100%" height="100%" x="0" y="0" fill="none" stroke="none"/>



<g class="currentLayer" style=""><title>Layer 1</title><path style="stroke-miterlimit: 10;" d="M71.333,0L0,41.333v83.333l72,41.667l72-41v-84L71.333,0z M133.333,118.333  l-61.167,35L11,118.667V47.333L72,12l61.666,36.333L133.333,118.333z" id="svg_1" class="" fill-opacity="1" fill="#9ca3a2" stroke-opacity="1" stroke="#9ca3a2"/><path d="M54,47.333h15.667v66c0,0-0.667,3.334-5,4s-27.375,0.583-27.375,0.583s-3.375-0.25-5.875-4.875v-12.625l15.125-5.25v15.5  l7.75-0.375L54,47.333z" id="svg_2" class="" fill-opacity="1" fill="#9ca3a2"/><path d="M112.667,52.042c-0.125-3.5-4.5-4.708-4.5-4.708H72l2.791,2.708l-0.125,67.878c0,0,27.625,1.122,32.75,0  s5.25-4.753,5.25-4.753S112.792,55.542,112.667,52.042z M82.792,110.417l7.375-2.625l-0.25-53h7.5l0.125,55.625H82.792z" id="svg_3" class="" fill-opacity="1" fill="#9ca3a2"/></g></svg>